<svg xmlns="http://www.w3.org/2000/svg" width="200" height="48" viewBox="0 0 200 48" fill="none">
  <path d="M32.6 24c0 4.6-3.7 8.4-8.4 8.4-4.6 0-8.4-3.7-8.4-8.4 0-4.6 3.7-8.4 8.4-8.4 4.6 0 8.4 3.7 8.4 8.4z" fill="#45B39D"/>
  <path d="M24.2 7.8c-9 0-16.2 7.3-16.2 16.2 0 3.5 1.1 6.7 2.9 9.3l.2.3c.4.5.8 1 1.2 1.4l.3.3c3.1 3.3 7.5 5.3 12.4 5.1h.5c8.5-.7 15.1-7.8 15.1-16.4 0-9-7.3-16.2-16.4-16.2zm0 24.6c-4.6 0-8.4-3.7-8.4-8.4 0-4.6 3.7-8.4 8.4-8.4 4.6 0 8.4 3.7 8.4 8.4 0 4.6-3.7 8.4-8.4 8.4z" fill="#45B39D"/>
  <path d="M42.2 14l-8.6-10.1h-4.5v6h-.1c-1.6-.4-3.2-.6-4.8-.6-5.7 0-10.9 2.4-14.5 6.2V7.8h-4.5v10.1h6v-3.6c3-3.9 7.7-6.5 13-6.5 1.5 0 3 .2 4.4.6V14h13.6z" fill="#45B39D"/>
  <path d="M58.3 17.8c.8 0 1.5.1 2.1.4.6.3 1.2.6 1.6 1.1.4.4.8 1 1 1.6.2.6.3 1.3.3 2v8.7h-2.6v-8c0-.9-.3-1.7-.8-2.2-.5-.5-1.3-.8-2.3-.8-.5 0-1 .1-1.4.3-.4.2-.8.4-1.1.8-.3.3-.5.7-.7 1.2-.2.5-.2.9-.2 1.5v7.3h-2.6V18.1h2.5v2c.5-.7 1.1-1.3 1.8-1.7.8-.4 1.6-.6 2.4-.6zM72.8 25.5c0-.5-.1-.9-.2-1.3-.1-.4-.3-.7-.6-1-.3-.3-.6-.5-1-.6-.4-.1-.9-.2-1.4-.2-.5 0-1 .1-1.4.2-.4.1-.8.4-1.1.6-.3.3-.5.6-.7 1-.2.4-.2.8-.2 1.3h6.6zm-6.6 2.1c0 .5.1 1 .3 1.4.2.4.4.8.7 1.1.3.3.7.5 1.1.7.4.2.9.3 1.5.3.8 0 1.4-.2 1.9-.5.5-.3.9-.7 1.3-1.3l2.2 1.2c-.6.9-1.3 1.5-2.2 1.9-.9.4-1.9.6-3 .6-.9 0-1.8-.2-2.6-.5-.8-.3-1.5-.8-2-1.3-.6-.6-1-1.2-1.3-2-.3-.8-.5-1.6-.5-2.5 0-.9.2-1.7.5-2.5.3-.8.7-1.4 1.3-2 .5-.6 1.2-1 2-1.3.8-.3 1.6-.5 2.5-.5.9 0 1.8.2 2.5.5.7.3 1.4.8 1.9 1.4.5.6.9 1.3 1.2 2.1.3.8.4 1.7.4 2.7v.6h-9.7v-.1zM85.4 23.4c-.2-.2-.5-.4-.8-.5-.3-.1-.7-.2-1.1-.2-.9 0-1.6.3-2.1.9-.5.6-.8 1.4-.8 2.4v5.6h-2.6V18.1h2.5v1.9c.3-.6.7-1.1 1.3-1.5.6-.4 1.2-.6 1.9-.6.6 0 1.1.1 1.6.3.5.2.8.4 1.1.7l-1 2.5zM94.7 31.6c-.9 0-1.8-.2-2.5-.5-.8-.3-1.4-.8-2-1.3-.6-.6-1-1.2-1.3-2-.3-.8-.5-1.6-.5-2.5 0-.9.2-1.7.5-2.5.3-.8.8-1.4 1.3-2 .6-.6 1.2-1 2-1.3.8-.3 1.6-.5 2.5-.5.9 0 1.8.2 2.5.5.8.3 1.4.8 2 1.3.6.6 1 1.2 1.3 2 .3.8.5 1.6.5 2.5 0 .9-.2 1.7-.5 2.5-.3.8-.8 1.4-1.3 2-.6.6-1.2 1-2 1.3-.8.3-1.6.5-2.5.5zm0-2.4c.5 0 1-.1 1.4-.3.4-.2.8-.5 1.1-.8.3-.3.5-.7.7-1.2.2-.4.2-.9.2-1.4 0-.5-.1-1-.2-1.4-.2-.4-.4-.8-.7-1.2-.3-.3-.7-.6-1.1-.8-.4-.2-.9-.3-1.4-.3-.5 0-1 .1-1.4.3-.4.2-.8.5-1.1.8-.3.3-.5.7-.7 1.2-.2.4-.2.9-.2 1.4 0 .5.1 1 .2 1.4.2.4.4.8.7 1.2.3.3.6.6 1.1.8.4.2.9.3 1.4.3zM110.7 31.3c-.6.1-1.3.2-1.9.2-1.1 0-2-.3-2.6-.9-.6-.6-.9-1.5-.9-2.7v-7.3h-1.9v-2.5h1.9v-4.2h2.6v4.2h2.8v2.5h-2.8v6.8c0 .6.1 1 .4 1.3.3.3.7.4 1.3.4.3 0 .7 0 1.1-.1v2.3zM113.5 14.7c0-.5.2-.9.5-1.2.3-.3.7-.5 1.2-.5.5 0 .9.2 1.2.5.3.3.5.7.5 1.2s-.2.9-.5 1.2c-.3.3-.7.5-1.2.5-.5 0-.9-.2-1.2-.5-.3-.3-.5-.7-.5-1.2zm3.2 16.9h-2.6V18.1h2.6v13.5zM126.5 31.6c-.9 0-1.8-.2-2.5-.5-.8-.3-1.4-.8-2-1.3-.6-.6-1-1.2-1.3-2-.3-.8-.5-1.6-.5-2.5 0-.9.2-1.7.5-2.5.3-.8.8-1.4 1.3-2 .6-.6 1.2-1 2-1.3.8-.3 1.6-.5 2.5-.5.9 0 1.7.2 2.5.5.8.3 1.5.7 2.1 1.3l-1.8 1.8c-.4-.3-.8-.6-1.2-.8-.4-.2-1-.3-1.6-.3-.5 0-1 .1-1.4.3-.4.2-.8.5-1.1.8-.3.3-.5.7-.7 1.2-.2.4-.3.9-.3 1.4 0 .5.1 1 .3 1.4.2.4.4.8.7 1.2.3.3.7.6 1.1.8.4.2.9.3 1.4.3.6 0 1.1-.1 1.6-.3.4-.2.9-.5 1.3-.8l1.7 1.7c-.6.6-1.3 1.1-2.1 1.4-.7.3-1.6.5-2.5.5zM144.1 31.6c-.9 0-1.8-.2-2.5-.5-.8-.3-1.4-.8-2-1.3-.6-.6-1-1.2-1.3-2-.3-.8-.5-1.6-.5-2.5 0-.9.2-1.7.5-2.5.3-.8.8-1.4 1.3-2 .6-.6 1.2-1 2-1.3.8-.3 1.6-.5 2.5-.5.9 0 1.8.2 2.5.5.8.3 1.4.8 2 1.3.6.6 1 1.2 1.3 2 .3.8.5 1.6.5 2.5 0 .9-.2 1.7-.5 2.5-.3.8-.8 1.4-1.3 2-.6.6-1.2 1-2 1.3-.8.3-1.6.5-2.5.5zm0-2.4c.5 0 1-.1 1.4-.3.4-.2.8-.5 1.1-.8.3-.3.5-.7.7-1.2.2-.4.2-.9.2-1.4 0-.5-.1-1-.2-1.4-.2-.4-.4-.8-.7-1.2-.3-.3-.7-.6-1.1-.8-.4-.2-.9-.3-1.4-.3-.5 0-1 .1-1.4.3-.4.2-.8.5-1.1.8-.3.3-.5.7-.7 1.2-.2.4-.2.9-.2 1.4 0 .5.1 1 .2 1.4.2.4.4.8.7 1.2.3.3.6.6 1.1.8.4.2.9.3 1.4.3zM157.9 18.1h2.5v2c.5-.7 1.1-1.3 1.8-1.7.8-.4 1.6-.6 2.4-.6.8 0 1.5.1 2.1.4.6.3 1.2.6 1.6 1.1.4.4.8 1 1 1.6.2.6.3 1.3.3 2v8.7h-2.6v-8c0-.9-.3-1.7-.8-2.2-.5-.5-1.3-.8-2.3-.8-.5 0-1 .1-1.4.3-.4.2-.8.4-1.1.8-.3.3-.5.7-.7 1.2-.2.5-.2.9-.2 1.5v7.3h-2.6V18.1zM175.8 27.3c0-.4.1-.7.2-1.1.1-.4.3-.7.6-1 .3-.3.6-.5 1-.7.4-.2.8-.3 1.3-.3.5 0 .9.1 1.3.3.4.2.7.4 1 .7.3.3.5.6.6 1 .1.4.2.7.2 1.1 0 .4-.1.7-.2 1.1-.2.3-.3.7-.6 1-.3.3-.6.5-1 .7-.4.2-.8.3-1.3.3-.5 0-.9-.1-1.3-.3-.4-.2-.7-.4-1-.7-.3-.3-.5-.6-.6-1-.1-.4-.2-.7-.2-1.1zM183.4 28.1l8.6-10.3h-8.3v-2.4h11.7v3.5l-8.6 10.3h8.7v2.4h-12.1z" fill="#45B39D"/>
</svg>
